<?xml version="1.0" encoding="utf-8"?>
<!-- Generator: Adobe Illustrator 15.0.0, SVG Export Plug-In . SVG Version: 6.00 Build 0)  -->
<!DOCTYPE svg PUBLIC "-//W3C//DTD SVG 1.1//EN" "http://www.w3.org/Graphics/SVG/1.1/DTD/svg11.dtd">
<svg version="1.1" id="Layer_1" xmlns="http://www.w3.org/2000/svg" xmlns:xlink="http://www.w3.org/1999/xlink" x="0px" y="0px"
	 width="105.016px" height="77px" viewBox="0 0 105.016 77" enable-background="new 0 0 105.016 77" xml:space="preserve">
<path fill="#7998AA" d="M102.886,70.27c-4.979-2.6-7.66-5.48-9.07-7.65c6.13-6.889,9.479-15.659,9.479-24.979
	C103.295,16.89,86.407,0,65.646,0c-4.62,0-9.05,0.84-13.15,2.37C48.406,0.84,43.966,0,39.346,0c-20.75,0-37.64,16.88-37.64,37.64
	c0,9.32,3.35,18.091,9.48,24.979c-1.44,2.201-4.17,5.141-9.29,7.761c-1.47,0.76-2.21,2.44-1.77,4.03c0.41,1.539,1.8,2.59,3.37,2.59
	c0.07,0,0.14-0.01,0.2-0.01c2.56-0.15,14.54-1,21.02-4.65c4.61,1.96,9.53,2.949,14.63,2.949c4.62,0,9.06-0.84,13.15-2.369
	c4.09,1.529,8.53,2.369,13.15,2.369c5.11,0,10.021-0.989,14.63-2.949c6.48,3.641,18.461,4.5,21.03,4.65c0.06,0,0.13,0.01,0.2,0.01
	c1.9,0,3.51-1.57,3.51-3.5C105.016,72.05,104.146,70.8,102.886,70.27z M39.346,68.279c-4.72,0-9.23-1.029-13.41-3.08
	c-0.48-0.239-1.01-0.359-1.54-0.359c-0.81,0-1.61,0.29-2.25,0.83c-1.18,1-3.56,1.85-6.38,2.529c1.49-1.869,2.39-3.549,2.92-4.779
	c0.57-1.33,0.27-2.87-0.77-3.891c-5.94-5.81-9.21-13.58-9.21-21.89c0-16.9,13.75-30.65,30.64-30.65c1.39,0,2.76,0.09,4.1,0.28
	c3.2,0.42,6.25,1.35,9.06,2.7c10.34,4.93,17.49,15.48,17.49,27.67c0,12.2-7.16,22.75-17.51,27.67c-2.81,1.351-5.86,2.271-9.07,2.7
	C42.086,68.189,40.726,68.279,39.346,68.279z M82.856,65.67c-1.061-0.9-2.55-1.08-3.8-0.471c-4.17,2.051-8.681,3.09-13.41,3.09
	c-1.38,0-2.739-0.09-4.08-0.27c9.351-6.859,15.431-17.92,15.431-30.38c0-12.45-6.08-23.51-15.431-30.37
	c1.341-0.18,2.7-0.27,4.08-0.27c16.899,0,30.64,13.75,30.649,30.64c0,8.31-3.27,16.091-9.209,21.89
	c-1.041,1.021-1.34,2.561-0.771,3.891c0.53,1.23,1.431,2.91,2.921,4.779C86.417,67.52,84.036,66.67,82.856,65.67z"/>
</svg>
