<?xml version="1.0" encoding="utf-8"?>
<!-- Generator: Adobe Illustrator 15.0.0, SVG Export Plug-In . SVG Version: 6.00 Build 0)  -->
<!DOCTYPE svg PUBLIC "-//W3C//DTD SVG 1.1//EN" "http://www.w3.org/Graphics/SVG/1.1/DTD/svg11.dtd">
<svg version="1.1" id="Layer_1" xmlns="http://www.w3.org/2000/svg" xmlns:xlink="http://www.w3.org/1999/xlink" x="0px" y="0px"
	 width="105.017px" height="77px" viewBox="0 0 105.017 77" enable-background="new 0 0 105.017 77" xml:space="preserve">
<path fill="#7998AA" d="M102.886,70.28c-4.979-2.601-7.66-5.48-9.07-7.65c6.131-6.891,9.471-15.66,9.471-24.98
	C103.286,16.89,86.406,0,65.646,0c-4.619,0-9.06,0.84-13.149,2.37C48.406,0.84,43.966,0,39.346,0c-20.75,0-37.64,16.89-37.64,37.65
	c0,9.32,3.35,18.089,9.48,24.98c-1.44,2.2-4.17,5.13-9.28,7.76c-1.48,0.76-2.22,2.44-1.78,4.03c0.41,1.53,1.8,2.58,3.37,2.58h0.2
	c2.56-0.15,14.54-1.011,21.03-4.65c4.61,1.95,9.52,2.94,14.62,2.94c4.62,0,9.06-0.84,13.15-2.37c4.09,1.53,8.53,2.37,13.149,2.37
	c5.11,0,10.021-0.99,14.631-2.94c6.479,3.64,18.459,4.5,21.02,4.65h0.2c0.01,0,0.021,0,0.021,0c1.939,0,3.5-1.56,3.5-3.5
	C105.017,72.06,104.136,70.81,102.886,70.28z M43.426,68.021c-1.34,0.18-2.7,0.27-4.08,0.27c-4.72,0-9.23-1.03-13.41-3.08
	c-0.49-0.24-1.01-0.35-1.54-0.35c-0.81,0-1.61,0.279-2.26,0.819c-1.17,1-3.55,1.851-6.37,2.53c1.49-1.87,2.39-3.55,2.92-4.78
	c0.57-1.33,0.27-2.87-0.77-3.89c-5.94-5.801-9.21-13.58-9.21-21.89C8.706,20.75,22.456,7,39.346,7c1.38,0,2.74,0.09,4.08,0.27
	c3.21,0.43,6.26,1.36,9.07,2.7c10.34,4.93,17.5,15.49,17.5,27.68s-7.16,22.74-17.5,27.68C49.686,66.67,46.636,67.59,43.426,68.021z
	 M82.856,65.68c-1.061-0.89-2.551-1.08-3.801-0.47c-4.17,2.05-8.68,3.08-13.41,3.08c-1.379,0-2.739-0.09-4.08-0.27
	c9.351-6.86,15.431-17.91,15.431-30.371c0-12.46-6.08-23.52-15.431-30.38C62.906,7.09,64.267,7,65.646,7
	c16.9,0,30.641,13.75,30.641,30.65c0,8.31-3.27,16.089-9.2,21.89c-1.04,1.02-1.34,2.56-0.771,3.89c0.531,1.229,1.431,2.91,2.92,4.78
	C86.416,67.53,84.036,66.68,82.856,65.68z"/>
</svg>
