<?xml version="1.0" encoding="utf-8"?>
<!-- Generator: Adobe Illustrator 15.0.0, SVG Export Plug-In . SVG Version: 6.00 Build 0)  -->
<!DOCTYPE svg PUBLIC "-//W3C//DTD SVG 1.1//EN" "http://www.w3.org/Graphics/SVG/1.1/DTD/svg11.dtd">
<svg version="1.1" id="Layer_1" xmlns="http://www.w3.org/2000/svg" xmlns:xlink="http://www.w3.org/1999/xlink" x="0px" y="0px"
	 width="68.019px" height="50px" viewBox="0 0 68.019 50" enable-background="new 0 0 68.019 50" xml:space="preserve">
<path fill="#7998AA" d="M66.47,45.19c-3.04-1.591-4.7-3.37-5.59-4.66c3.899-4.46,6.02-10.101,6.02-16.08
	C66.9,10.97,55.93,0,42.451,0c-2.971,0-5.811,0.53-8.45,1.51C31.361,0.53,28.52,0,25.551,0C12.071,0,1.1,10.97,1.1,24.45
	c0,5.979,2.12,11.62,6.02,16.08c-0.91,1.31-2.62,3.13-5.76,4.75c-1.05,0.529-1.58,1.739-1.27,2.88c0.29,1.09,1.29,1.84,2.41,1.84
	h0.14c1.64-0.1,9.27-0.65,13.51-2.97c2.97,1.239,6.13,1.87,9.4,1.87c2.97,0,5.81-0.53,8.45-1.511c2.64,0.98,5.479,1.511,8.45,1.511
	c3.27,0,6.42-0.631,9.399-1.87c4.24,2.319,11.87,2.87,13.51,2.97h0.141c0.01,0,0.01,0,0.02,0c1.38,0,2.5-1.12,2.5-2.5
	C68.02,46.46,67.381,45.56,66.47,45.19z M27.531,43.8c-0.65,0.07-1.31,0.101-1.98,0.101c-2.99,0-5.86-0.66-8.52-1.96
	c-0.35-0.171-0.73-0.25-1.1-0.25c-0.58,0-1.15,0.199-1.61,0.59c-0.64,0.54-1.84,1.01-3.31,1.399c0.72-0.989,1.18-1.88,1.47-2.55
	c0.41-0.95,0.2-2.05-0.54-2.77c-3.77-3.7-5.84-8.641-5.84-13.91C6.1,13.73,14.821,5,25.551,5c0.67,0,1.33,0.03,1.98,0.1
	c2.3,0.23,4.48,0.87,6.47,1.84c6.5,3.14,11,9.81,11,17.51s-4.5,14.37-11,17.51C32.01,42.93,29.83,43.57,27.531,43.8z M53.68,42.28
	c-0.76-0.641-1.82-0.78-2.71-0.34c-2.66,1.3-5.53,1.96-8.52,1.96c-0.671,0-1.33-0.03-1.98-0.101c5.79-4.47,9.53-11.479,9.53-19.35
	S46.26,9.57,40.47,5.1c0.65-0.07,1.31-0.1,1.98-0.1C53.171,5,61.9,13.73,61.9,24.45c0,5.27-2.08,10.21-5.84,13.91
	c-0.74,0.72-0.96,1.819-0.55,2.77c0.29,0.67,0.76,1.561,1.48,2.55C55.52,43.29,54.32,42.82,53.68,42.28z"/>
</svg>
