<?xml version="1.0" encoding="utf-8"?>
<!-- Generator: Adobe Illustrator 15.0.0, SVG Export Plug-In . SVG Version: 6.00 Build 0)  -->
<!DOCTYPE svg PUBLIC "-//W3C//DTD SVG 1.1//EN" "http://www.w3.org/Graphics/SVG/1.1/DTD/svg11.dtd">
<svg version="1.1" id="Layer_1" xmlns="http://www.w3.org/2000/svg" xmlns:xlink="http://www.w3.org/1999/xlink" x="0px" y="0px"
	 width="85px" height="85px" viewBox="0 0 85 85" enable-background="new 0 0 85 85" xml:space="preserve">
<path fill-rule="evenodd" clip-rule="evenodd" fill="#7998AA" d="M47.811,23.91c0,2.32-2.65,5.31-2.65,5.31h-5.32
	c-3.79,3.1-2.65,5.24-2.65,7.97c0,2.72-2.66,2.65-2.66,2.65c-2.88-4.65-7.97-5.31-7.97-5.31v-5.31c-3.14,0-2.65-2.66-2.65-2.66
	c13.82-13.82,29.22-5.31,29.22-5.31C53.13,24,47.811,23.91,47.811,23.91z M50.47,66.41c0,0-2.659-0.61-2.659-2.66
	s-0.58-5.891-5.311-10.63V42.5c0,0,0.59-2.66,2.66-2.66c2.061,0,4.64-0.67,13.279,7.971h2.65c0,0,2.66,0.289,2.66,2.66
	C63.75,52.83,55.93,66.41,50.47,66.41z M42.5,5.31C21.96,5.31,5.31,21.96,5.31,42.5S21.96,79.689,42.5,79.689
	S79.689,63.04,79.689,42.5S63.04,5.31,42.5,5.31z M42.5,85C19.03,85,0,65.971,0,42.5C0,19.03,19.03,0,42.5,0
	C65.97,0,85,19.03,85,42.5C85,65.971,65.97,85,42.5,85z"/>
</svg>
