<?xml version="1.0" encoding="utf-8"?>
<!-- Generator: Adobe Illustrator 15.0.0, SVG Export Plug-In . SVG Version: 6.00 Build 0)  -->
<!DOCTYPE svg PUBLIC "-//W3C//DTD SVG 1.1//EN" "http://www.w3.org/Graphics/SVG/1.1/DTD/svg11.dtd">
<svg version="1.1" id="Layer_1" xmlns="http://www.w3.org/2000/svg" xmlns:xlink="http://www.w3.org/1999/xlink" x="0px" y="0px"
	 width="55px" height="55px" viewBox="0 0 55 55" enable-background="new 0 0 55 55" xml:space="preserve">
<g>
	<path fill="#7998AA" d="M30.939,15.47c0,1.5-1.721,3.44-1.721,3.44h-3.44c-2.449,2-1.719,3.39-1.719,5.15
		c0,1.77-1.721,1.72-1.721,1.72c-1.859-3.01-5.15-3.44-5.15-3.44v-3.43c-2.029,0-1.72-1.72-1.72-1.72
		c8.94-8.95,18.91-3.44,18.91-3.44C34.38,15.53,30.939,15.47,30.939,15.47z M32.66,42.971c0,0-1.721-0.4-1.721-1.721
		s-0.379-3.811-3.439-6.88V27.5c0,0,0.38-1.72,1.721-1.72c1.34,0,3-0.43,8.59,5.16h1.719c0,0,1.722,0.19,1.722,1.722
		C41.25,34.189,36.189,42.971,32.66,42.971z M27.5,3.44C14.21,3.44,3.439,14.21,3.439,27.5S14.21,51.561,27.5,51.561
		S51.561,40.79,51.561,27.5S40.79,3.44,27.5,3.44z M27.5,55C12.311,55,0,42.689,0,27.5C0,12.31,12.311,0,27.5,0
		C42.689,0,55,12.31,55,27.5C55,42.689,42.689,55,27.5,55z"/>
</g>
</svg>
