<?xml version="1.0" encoding="utf-8"?>
<!-- Generator: Adobe Illustrator 15.0.0, SVG Export Plug-In . SVG Version: 6.00 Build 0)  -->
<!DOCTYPE svg PUBLIC "-//W3C//DTD SVG 1.1//EN" "http://www.w3.org/Graphics/SVG/1.1/DTD/svg11.dtd">
<svg version="1.1" id="Layer_1" xmlns="http://www.w3.org/2000/svg" xmlns:xlink="http://www.w3.org/1999/xlink" x="0px" y="0px"
	 width="129px" height="100px" viewBox="0 0 129 100" enable-background="new 0 0 129 100" xml:space="preserve">
<path fill-rule="evenodd" clip-rule="evenodd" fill="#7998AA" d="M77.09,22.86v12.72l-7.27,7.28V30.13H7.53v62.341H69.82V77.92
	l7.27-7.27V100H0V22.86H77.09z M129,6.23c0,4.68-7.27,9.61-11.42,14.03c-21.54,22.08-43.87,43.9-65.67,65.45
	c-1.04,0.78-2.85,1.3-3.63,1.3c-1.82,0-4.67-1.82-6.23-3.63c-8.57-9.351-17.91-17.67-26.48-26.5c-1.03-1.3-1.29-3.37-1.29-4.149
	c0-3.9,3.37-5.98,6.23-5.98c0.51,0,2.33,0,3.37,0.78c8.05,7.531,16.35,16.111,24.4,24.16C71.9,48.31,95.26,24.42,119.141,1.04
	C119.92,0.26,121.99,0,122.51,0C126.141,0,129,3.38,129,6.23z"/>
</svg>
