<?xml version="1.0" encoding="utf-8"?>
<!-- Generator: Adobe Illustrator 15.0.0, SVG Export Plug-In . SVG Version: 6.00 Build 0)  -->
<!DOCTYPE svg PUBLIC "-//W3C//DTD SVG 1.1//EN" "http://www.w3.org/Graphics/SVG/1.1/DTD/svg11.dtd">
<svg version="1.1" id="Layer_1" xmlns="http://www.w3.org/2000/svg" xmlns:xlink="http://www.w3.org/1999/xlink" x="0px" y="0px"
	 width="12.488px" height="16px" viewBox="0 0 12.488 16" enable-background="new 0 0 12.488 16" xml:space="preserve">
<path fill="#001F37" d="M11.458,3.385L8.377,6.777V4.516H5.88C3.381,4.771,2.03,7.097,2.03,9.13c0,2.611,1.934,4.609,4.201,4.609
	c2.081,0,4.055-1.672,4.227-4.58h2.03v0.392C12.105,13.739,9.081,16,6.231,16c-2.383,0-5.143-1.579-6.053-5.162
	C0.089,10.418,0,9.643,0,9.579V8.676C0.031,8.419,0.057,8.1,0.089,7.872c0.059-0.228,0.115-0.483,0.147-0.675
	c0.295-1.65,2.171-3.968,3.76-4.487c0.205-0.064,0.41-0.164,0.647-0.227C4.963,2.39,5.643,2.289,5.732,2.289h2.58V0L11.458,3.385z"
	/>
</svg>
