<?xml version="1.0" encoding="utf-8"?>
<!-- Generator: Adobe Illustrator 15.0.0, SVG Export Plug-In . SVG Version: 6.00 Build 0)  -->
<!DOCTYPE svg PUBLIC "-//W3C//DTD SVG 1.1//EN" "http://www.w3.org/Graphics/SVG/1.1/DTD/svg11.dtd">
<svg version="1.1" id="Layer_1" xmlns="http://www.w3.org/2000/svg" xmlns:xlink="http://www.w3.org/1999/xlink" x="0px" y="0px"
	 width="144.985px" height="34.25px" viewBox="0 0 144.985 34.25" enable-background="new 0 0 144.985 34.25" xml:space="preserve">
<g>
	<g>
		<path fill-rule="evenodd" clip-rule="evenodd" fill="#95AFBF" d="M0.625,17.25c0-9.11,7.39-16.5,16.5-16.5
			c9.109,0,16.5,7.39,16.5,16.5c0,9.109-7.391,16.5-16.5,16.5C8.015,33.75,0.625,26.359,0.625,17.25z"/>
		<path fill-rule="evenodd" clip-rule="evenodd" fill="#011126" d="M4.625,16.95c0,6.729,5.46,12.19,12.2,12.19
			c1.909,0,3.72-0.44,5.34-1.23c1.79,1.52,7.46,1.84,7.46,1.84c-2.82-1.439-3.891-3.2-4.27-4.09c2.26-2.221,3.66-5.301,3.66-8.71
			c0-6.74-5.461-12.2-12.19-12.2C10.085,4.75,4.625,10.21,4.625,16.95z"/>
		<path fill-rule="evenodd" clip-rule="evenodd" fill="#F7F8F8" d="M6.425,16.84c0,2.51,0.9,4.811,2.4,6.6
			c-0.01-1.299,2.57-15.689,16.579-12.109c-1.829-2.87-5.039-4.78-8.689-4.78C11.035,6.55,6.425,11.15,6.425,16.84z"/>
	</g>
</g>
<g>
	<path fill="#F7F8F8" d="M43.875,12.711c0-0.14,0.112-0.266,0.266-0.266h5.799c0.154,0,0.266,0.126,0.266,0.266v1.527
		c0,0.14-0.112,0.266-0.266,0.266h-3.88v1.737h3.194c0.14,0,0.266,0.126,0.266,0.266v1.527c0,0.154-0.126,0.266-0.266,0.266H46.06
		v1.891h3.88c0.154,0,0.266,0.126,0.266,0.266v1.527c0,0.14-0.112,0.266-0.266,0.266h-5.799c-0.154,0-0.266-0.126-0.266-0.266
		V12.711z"/>
	<path fill="#F7F8F8" d="M53.536,12.529c0.014-0.126,0.14-0.224,0.252-0.224h0.224c0.07,0,0.196,0.056,0.238,0.14l3.25,6.051h0.028
		l3.25-6.051c0.042-0.084,0.168-0.14,0.238-0.14h0.224c0.112,0,0.238,0.098,0.252,0.224l1.583,9.413
		c0.028,0.182-0.098,0.308-0.266,0.308h-1.653c-0.126,0-0.252-0.112-0.266-0.224l-0.63-4.328h-0.028l-2.353,4.538
		c-0.042,0.084-0.168,0.154-0.238,0.154h-0.252c-0.084,0-0.196-0.07-0.238-0.154l-2.367-4.538h-0.028l-0.616,4.328
		c-0.014,0.112-0.126,0.224-0.266,0.224h-1.653c-0.168,0-0.294-0.126-0.266-0.308L53.536,12.529z"/>
	<path fill="#F7F8F8" d="M69.666,12.305c2.801,0,5.042,2.255,5.042,5.057c0,2.802-2.241,5.029-5.042,5.029
		c-2.802,0-5.029-2.227-5.029-5.029C64.637,14.56,66.864,12.305,69.666,12.305z M69.666,20.149c1.541,0,2.801-1.261,2.801-2.788
		c0-1.541-1.261-2.815-2.801-2.815c-1.527,0-2.788,1.274-2.788,2.815C66.878,18.888,68.139,20.149,69.666,20.149z"/>
	<path fill="#F7F8F8" d="M76.887,12.711c0-0.14,0.112-0.266,0.266-0.266h4.188c1.681,0,3.054,1.358,3.054,3.025
		c0,1.289-0.854,2.325-2.073,2.815l1.919,3.558c0.098,0.182,0,0.406-0.238,0.406H82.14c-0.112,0-0.196-0.07-0.224-0.126
		l-1.863-3.712h-0.967v3.572c0,0.14-0.126,0.266-0.266,0.266h-1.667c-0.154,0-0.266-0.126-0.266-0.266V12.711z M81.159,16.633
		c0.574,0,1.064-0.532,1.064-1.121s-0.49-1.064-1.064-1.064h-2.073v2.185H81.159z"/>
	<path fill="#F7F8F8" d="M88.564,17.529l-3.096-4.678c-0.112-0.182,0-0.406,0.224-0.406h1.821c0.112,0,0.182,0.07,0.224,0.126
		l1.947,2.872l1.947-2.872c0.042-0.056,0.098-0.126,0.224-0.126h1.821c0.224,0,0.336,0.224,0.224,0.406l-3.138,4.665v4.468
		c0,0.14-0.126,0.266-0.266,0.266H88.83c-0.154,0-0.266-0.126-0.266-0.266V17.529z"/>
	<path fill="#93ADBF" d="M95.661,12.711c0-0.14,0.112-0.266,0.266-0.266h3.138c1.695,0,2.914,1.121,2.914,2.591
		c0,1.079-0.798,1.849-1.457,2.227c0.743,0.308,1.751,0.995,1.751,2.283c0,1.569-1.289,2.704-3.054,2.704h-3.292
		c-0.154,0-0.266-0.126-0.266-0.266V12.711z M99.205,20.961c0.854,0,1.513-0.659,1.513-1.527c0-0.854-0.813-1.471-1.723-1.471
		h-1.919v2.998H99.205z M98.98,16.703c0.896,0,1.442-0.659,1.442-1.499c0-0.854-0.546-1.443-1.442-1.443h-1.891v2.942H98.98z"/>
	<path fill="#93ADBF" d="M104.242,12.711c0-0.14,0.126-0.266,0.267-0.266h0.938c0.154,0,0.266,0.126,0.266,0.266v5.785
		c0,1.401,0.896,2.493,2.325,2.493c1.443,0,2.353-1.079,2.353-2.465v-5.813c0-0.14,0.112-0.266,0.266-0.266h0.938
		c0.14,0,0.266,0.126,0.266,0.266v5.883c0,2.129-1.611,3.796-3.824,3.796c-2.199,0-3.796-1.667-3.796-3.796V12.711z"/>
	<path fill="#93ADBF" d="M114.448,12.711c0-0.14,0.112-0.266,0.267-0.266h3.138c1.694,0,2.913,1.121,2.913,2.591
		c0,1.079-0.798,1.849-1.456,2.227c0.742,0.308,1.751,0.995,1.751,2.283c0,1.569-1.289,2.704-3.054,2.704h-3.292
		c-0.154,0-0.267-0.126-0.267-0.266V12.711z M117.992,20.961c0.854,0,1.513-0.659,1.513-1.527c0-0.854-0.812-1.471-1.723-1.471
		h-1.919v2.998H117.992z M117.769,16.703c0.896,0,1.442-0.659,1.442-1.499c0-0.854-0.546-1.443-1.442-1.443h-1.892v2.942H117.769z"
		/>
	<path fill="#93ADBF" d="M123.156,12.711c0-0.14,0.112-0.266,0.267-0.266h3.138c1.694,0,2.913,1.121,2.913,2.591
		c0,1.079-0.798,1.849-1.456,2.227c0.742,0.308,1.751,0.995,1.751,2.283c0,1.569-1.289,2.704-3.054,2.704h-3.292
		c-0.154,0-0.267-0.126-0.267-0.266V12.711z M126.7,20.961c0.854,0,1.513-0.659,1.513-1.527c0-0.854-0.813-1.471-1.723-1.471h-1.919
		v2.998H126.7z M126.477,16.703c0.896,0,1.442-0.659,1.442-1.499c0-0.854-0.546-1.443-1.442-1.443h-1.892v2.942H126.477z"/>
	<path fill="#93ADBF" d="M131.864,12.711c0-0.14,0.112-0.266,0.267-0.266h0.925c0.14,0,0.266,0.126,0.266,0.266v8.236h3.796
		c0.154,0,0.267,0.126,0.267,0.266v0.771c0,0.14-0.112,0.266-0.267,0.266h-4.986c-0.154,0-0.267-0.126-0.267-0.266V12.711z"/>
	<path fill="#93ADBF" d="M138.85,12.711c0-0.14,0.112-0.266,0.267-0.266h5.603c0.154,0,0.267,0.126,0.267,0.266v0.784
		c0,0.14-0.112,0.266-0.267,0.266h-4.426v2.858h3.74c0.14,0,0.266,0.126,0.266,0.266v0.784c0,0.154-0.126,0.266-0.266,0.266h-3.74
		v3.012h4.426c0.154,0,0.267,0.126,0.267,0.266v0.771c0,0.14-0.112,0.266-0.267,0.266h-5.603c-0.154,0-0.267-0.126-0.267-0.266
		V12.711z"/>
</g>
</svg>
